# xmcd
#
# Track frame offsets: 
#        150
#        13570
#        26777
#        39045
#        57232
#        67987
#        78787
#        102285
#        118805
#        138260
#
# Disc length: 2101 seconds
#
# Revision: 0
# Processed by: cddbd v1.5.1PL0 Copyright (c) Steve Scherf et al.
# Submitted via: ExactAudioCopy v0.95a5
#
DISCID=7508330a
DTITLE=Cathedral Quartet - Sunshine And Roses
DYEAR=1998
DGENRE=Gospel
TTITLE0=When I See His Face
TTITLE1=Lord I Need A Blessing
TTITLE2=I Know My Saviour Is There
TTITLE3=I Want To Walk Your Way Every Day
TTITLE4=The Streets Of Gold
TTITLE5=There'll Be Shouting
TTITLE6=Sunshine And Roses
TTITLE7=Closer To You
TTITLE8=Me, Pap And Mother
TTITLE9=Even The Wind Whispers His Name
EXTD=
EXTT0=
EXTT1=
EXTT2=
EXTT3=
EXTT4=
EXTT5=
EXTT6=
EXTT7=
EXTT8=
EXTT9=
PLAYORDER=
